# Blender v3.0.1 OBJ File: ''
# www.blender.org
# cage vertex : 9~16/48 : front foots
mtllib cat_cage.mtl
o Plane
v 0.071667 0.282177 0.258888
v 0.071667 0.282177 -0.184924
v 0.071667 -0.035432 0.184924
v 0.071667 -0.035432 -0.184924
v 0.585082 -0.035432 0.184924
v 0.585082 -0.035432 -0.184924
v 0.585082 0.290741 0.184924
v 0.585082 0.290741 -0.184924
vt 0.000000 1.000000
vt 1.000000 0.000000
vt 0.000000 0.000000
vt 1.000000 0.000000
vt 1.000000 1.000000
vt 1.000000 0.000000
vt 1.000000 1.000000
vt 0.000000 0.000000
vt 0.000000 1.000000
vt 1.000000 1.000000
vt 1.000000 0.000000
vt 1.000000 1.000000
vt 1.000000 0.000000
vt 1.000000 1.000000
vt 1.000000 0.000000
vt 0.000000 1.000000
vt 0.000000 0.000000
vt 0.000000 1.000000
vt 0.000000 1.000000
vt 0.000000 0.000000
vt 0.000000 1.000000
vt 0.000000 0.000000
vt 0.000000 0.000000
vt 1.000000 1.000000
vt 1.000000 1.000000
vt 1.000000 0.000000
vt 1.000000 1.000000
vt 1.000000 0.000000
vt 1.000000 1.000000
vt 1.000000 0.000000
vt 1.000000 0.000000
vt 1.000000 1.000000
vt 1.000000 0.000000
vt 1.000000 1.000000
vt 1.000000 0.000000
vt 0.000000 0.000000
vt 0.000000 0.000000
vt 1.000000 1.000000
vt 0.000000 0.000000
vt 0.000000 0.000000
vt 1.000000 1.000000
vt 0.000000 0.000000
vt 0.000000 0.000000
vt 0.000000 0.000000
vt 1.000000 0.000000
vt 0.000000 0.000000
vt 0.000000 0.000000
vt 0.000000 0.000000
vt 1.000000 1.000000
vn 0.0047 -1.0000 0.0000
vn 0.0000 -1.0000 0.0000
vn 0.9980 0.0633 0.0000
vn -0.9998 -0.0177 0.0000
vn -0.0477 -0.1781 -0.9829
vn 0.0020 -0.0306 0.9995
vn -1.0000 0.0000 0.0000
vn 1.0000 0.0000 0.0000
vn 0.0000 -0.2268 0.9739
vn 0.0000 0.0000 -1.0000
vn 0.0000 1.0000 0.0000
vn -0.0839 0.0000 -0.9965
vn -0.1228 0.3576 0.9258
vn -0.1379 -0.1953 -0.9710
vn 0.0183 -0.2862 0.9580
vn 0.0000 0.0000 1.0000
vn 0.9911 -0.1330 0.0000
vn -0.2131 0.9770 0.0000
vn -0.2350 0.9720 0.0000
vn 0.0385 -0.0776 0.9962
vn -0.2465 -0.0753 0.9662
vn -0.0932 0.2552 0.9624
vn 0.2472 0.2315 0.9409
vn 0.2879 0.2696 -0.9189
vn 0.1242 -0.3351 -0.9340
vn 0.2027 -0.5474 -0.8119
vn -0.0326 0.2651 -0.9637
vn 0.3674 0.0000 0.9300
vn 0.3767 0.0000 -0.9263
vn 0.1765 0.9843 0.0000
vn -0.1430 0.9890 -0.0390
vn -0.1141 0.2371 -0.9648
vn -0.2259 0.0000 0.9741
vn 0.0175 -0.2737 -0.9617
vn -0.0495 0.0491 0.9976
vn 0.1426 0.0000 0.9898
vn 0.0000 0.2372 -0.9715
vn -0.0012 -0.3112 0.9503
vn 0.1413 -0.2852 0.9480
vn -0.0177 -0.3112 0.9502
vn 0.0475 0.1637 0.9854
vn 0.0093 -0.5590 -0.8291
vn -0.0857 -0.1964 -0.9768
vn 0.0787 0.2018 -0.9763
vn 0.1233 0.2425 0.9623
vn 0.0975 0.2580 -0.9612
vn 0.1164 0.9924 -0.0391
vn -0.1804 0.9836 0.0000
vn -0.2693 0.0000 -0.9631
vn 0.0013 0.3589 0.9334
usemtl None
s off
#9-1, 10-2, 11-3, 12-4, 13-5, 14-6, 15-7, 16-8
f 2/5/7 3/11/7 1/6/7
f 4/12/2 5/13/2 3/11/2
f 6/14/8 7/15/8 5/13/8
f 5/13/9 1/6/9 3/11/9
f 2/5/10 6/14/10 4/12/10
f 2/5/7 4/12/7 3/11/7
f 4/12/2 6/14/2 5/13/2
f 6/14/8 8/25/8 7/15/8
f 5/13/36 7/15/36 1/6/36
f 2/5/10 8/25/10 6/14/10
f 2// 7// 8//
f 1// 7// 2//

l 27 29
